<?xml version="1.0" encoding="UTF-8"?>
<svg xmlns="http://www.w3.org/2000/svg" width="1024" height="1024" viewBox="0 0 1024 1024" role="img" aria-labelledby="title desc">
  <title id="title">RE-TS Nod themed lockup</title>
  <desc id="desc">The locked RE-TS wordmark over a crimson angular Nod plate and a blackened steel segmented scorpion.</desc>
  <defs>
    <linearGradient id="nodRim" x1="0.08" y1="0" x2="0.92" y2="1">
      <stop offset="0" stop-color="#16191d"/>
      <stop offset="0.12" stop-color="#f1f3f4"/>
      <stop offset="0.24" stop-color="#656b72"/>
      <stop offset="0.43" stop-color="#171a1e"/>
      <stop offset="0.63" stop-color="#858b91"/>
      <stop offset="0.82" stop-color="#2a2d32"/>
      <stop offset="1" stop-color="#050607"/>
    </linearGradient>
    <linearGradient id="nodInnerRim" x1="0" y1="0" x2="1" y2="1">
      <stop offset="0" stop-color="#3b080b"/>
      <stop offset="0.35" stop-color="#c2c6ca"/>
      <stop offset="0.5" stop-color="#2a2d32"/>
      <stop offset="0.82" stop-color="#7d090d"/>
      <stop offset="1" stop-color="#17191c"/>
    </linearGradient>
    <radialGradient id="nodField" cx="66%" cy="32%" r="78%">
      <stop offset="0" stop-color="#f52a2f"/>
      <stop offset="0.24" stop-color="#bd0b12"/>
      <stop offset="0.62" stop-color="#700408"/>
      <stop offset="1" stop-color="#270104"/>
    </radialGradient>
    <linearGradient id="nodBlackMetal" x1="0.12" y1="0" x2="0.88" y2="1">
      <stop offset="0" stop-color="#07090b"/>
      <stop offset="0.22" stop-color="#555b64"/>
      <stop offset="0.46" stop-color="#111419"/>
      <stop offset="0.72" stop-color="#343942"/>
      <stop offset="1" stop-color="#050608"/>
    </linearGradient>
    <linearGradient id="nodSteelFace" x1="0" y1="0" x2="0.9" y2="1">
      <stop offset="0" stop-color="#f4f5f6"/>
      <stop offset="0.18" stop-color="#858b93"/>
      <stop offset="0.4" stop-color="#d8dbe0"/>
      <stop offset="0.7" stop-color="#4e535b"/>
      <stop offset="1" stop-color="#aeb3ba"/>
    </linearGradient>
    <linearGradient id="nodSteelDepth" x1="0" y1="0" x2="0" y2="1">
      <stop offset="0" stop-color="#4b5057"/>
      <stop offset="0.55" stop-color="#16191d"/>
      <stop offset="1" stop-color="#050607"/>
    </linearGradient>
    <linearGradient id="nodRedFace" x1="0.08" y1="0" x2="0.92" y2="1">
      <stop offset="0" stop-color="#ff6c68"/>
      <stop offset="0.18" stop-color="#e21b22"/>
      <stop offset="0.48" stop-color="#ff4340"/>
      <stop offset="0.74" stop-color="#8f050a"/>
      <stop offset="1" stop-color="#d5141a"/>
    </linearGradient>
    <linearGradient id="nodRedDepth" x1="0" y1="0" x2="0" y2="1">
      <stop offset="0" stop-color="#7e0509"/>
      <stop offset="0.55" stop-color="#350104"/>
      <stop offset="1" stop-color="#100102"/>
    </linearGradient>
    <filter id="plateShadow" x="-12%" y="-12%" width="124%" height="136%" color-interpolation-filters="sRGB">
      <feDropShadow dx="0" dy="13" stdDeviation="11" flood-color="#000" flood-opacity="0.82"/>
    </filter>
    <filter id="letterShadow" x="-15%" y="-15%" width="140%" height="150%" color-interpolation-filters="sRGB">
      <feDropShadow dx="4" dy="8" stdDeviation="4" flood-color="#000" flood-opacity="0.84"/>
    </filter>
    <filter id="fieldTexture" x="-5%" y="-5%" width="110%" height="110%">
      <feTurbulence type="fractalNoise" baseFrequency="0.018 0.05" numOctaves="4" seed="93" result="noise"/>
      <feColorMatrix in="noise" type="saturate" values="0" result="mono"/>
      <feComponentTransfer in="mono" result="faded">
        <feFuncA type="table" tableValues="0 0.2"/>
      </feComponentTransfer>
      <feComposite in="faded" in2="SourceAlpha" operator="in" result="clipped"/>
      <feBlend in="SourceGraphic" in2="clipped" mode="overlay"/>
    </filter>
    <filter id="letterGrain" x="-5%" y="-5%" width="110%" height="110%">
      <feTurbulence type="fractalNoise" baseFrequency="0.024 0.17" numOctaves="3" seed="41" result="noise"/>
      <feComponentTransfer in="noise" result="faded">
        <feFuncA type="table" tableValues="0 0.12"/>
      </feComponentTransfer>
      <feComposite in="faded" in2="SourceAlpha" operator="in" result="clipped"/>
      <feBlend in="SourceGraphic" in2="clipped" mode="soft-light"/>
    </filter>

    <!-- Locked canonical wordmark silhouettes. -->
    <g id="rShape" transform="translate(154 190) scale(1.14) translate(-2477.90 -662.92)">
      <path fill-rule="evenodd" d="M2654.57 736.70C2652.09 738.73 2648.68 740.26 2644.38 741.32C2640.07 742.38 2635.27 743.07 2629.97 743.40C2624.67 743.74 2619.21 743.91 2613.58 743.92H2604.13L2604.08 712.92H2614.52C2620.48 712.89 2626.11 713.05 2631.42 713.36C2636.71 713.67 2641.36 714.39 2645.34 715.51C2649.31 716.64 2652.46 718.21 2654.79 720.22C2657.10 722.24 2658.27 725.03 2658.28 728.58C2658.28 731.97 2657.05 734.68 2654.57 736.70ZM2737.32 766.72C2746.42 764.13 2753.97 760.96 2759.92 757.24C2765.88 753.51 2770.26 749.14 2773.06 744.13C2775.87 739.12 2777.27 733.14 2777.26 726.19C2777.24 714.72 2773.07 704.96 2764.79 696.90C2756.48 688.84 2745.21 682.28 2730.96 677.21C2716.70 672.15 2700.12 668.50 2681.24 666.27C2662.35 664.04 2656.50 662.92 2635.30 662.95L2477.90 663.22L2478.22 849.49L2604.31 849.28L2604.19 780.05L2661.14 849.18L2802.98 848.94L2716.86 771.54C2724.40 770.04 2731.30 768.44 2737.32 766.72Z"/>
    </g>
    <g id="eShape" transform="translate(545 190) scale(1.14) translate(-2146.62 -662.73)">
      <path d="M2146.62 663.21L2431.30 662.73L2431.38 711.72L2283.88 711.97L2283.91 729.75L2431.41 729.49L2431.49 776.11L2283.99 776.36L2284.02 793.96L2431.23 793.71L2431.32 848.94L2146.94 849.43Z"/>
    </g>
    <path id="tShape" transform="translate(13 -35)" d="M185 488H492L465 553H369V766H268V553H154Z"/>
    <path id="sShape" transform="translate(-12 -35)" d="M537 488H864L839 553H654V600H860V766H521L553 708H736V663H537Z"/>
  </defs>

  <!-- Low-profile Nod plate. Every point stays inside the 1024 px canvas. -->
  <g id="nodEmblem">
  <g filter="url(#plateShadow)">
    <path d="M337 54H687L984 602L851 923H173L40 602Z" fill="#07080a" stroke="#030405" stroke-width="12" stroke-linejoin="bevel"/>
    <path d="M351 69H673L963 604L838 903H186L61 604Z" fill="url(#nodRim)" stroke="#747a82" stroke-width="5" stroke-linejoin="bevel"/>
    <path d="M374 103H650L920 607L816 861H208L104 607Z" fill="#190104" stroke="url(#nodInnerRim)" stroke-width="18" stroke-linejoin="bevel"/>
    <path d="M387 126H637L891 610L798 833H226L133 610Z" fill="url(#nodField)" stroke="#6d080d" stroke-width="6" stroke-linejoin="bevel" filter="url(#fieldTexture)"/>
    <path d="M390 139H634" fill="none" stroke="#ff7470" stroke-width="4" opacity="0.58"/>
    <path d="M151 609L238 815H786L873 609" fill="none" stroke="#260105" stroke-width="7" opacity="0.72"/>
  </g>

  <!-- Eight-piece scorpion taken from the clean insignia geometry in the
       supplied Nod-embleem TD.svg, scaled as a background device. -->
  <g transform="translate(-300 -60) scale(17)">
    <g transform="matrix(0.11631764 0 0 0.11631762 -99.081201 -31.368873)"
       fill="url(#nodBlackMetal)" stroke="#8f959d" stroke-width="0.95"
       stroke-linejoin="round" opacity="0.8" filter="url(#letterGrain)">
      <path d="m 1284.0931,676.3947 c -6.1222,-3.21429 -23.4681,-1.17604 -31.8019,-32.49076 -17.9302,1.76777 -40.424,10.51994 -65.9304,38.55167 -6.8185,9.84899 -11.6167,8.33377 3.283,27.02159 10.3541,12.37437 17.9302,10.35406 30.3046,10.85914 39.901,1.76776 56.8211,-13.38453 56.8211,-13.38453 12.8794,-18.18274 19.4454,-18.18274 19.4454,-18.18274 0,0 -5.5558,-4.04061 -12.1218,-12.37437 z"/>
      <path d="m 1274.6304,668.566 c 0,-1.16754 -2.6361,-2.07203 -2.593,-3.48494 0.082,-2.70206 0.803,-5.54651 2.0046,-8.5904 21.7941,-52.32187 48.0581,-56.86755 48.0581,-56.86755 17.0616,16.15719 18.7856,21.18257 38.0054,17.39077 5.4123,3.07291 13.8497,3.12065 12.4337,13.02184 3.3179,19.12272 -25.3503,43.19767 -65.7884,54.8256 -7.0711,1.6415 -17.1019,-1.26928 -32.1204,-16.29532 z"/>
      <path d="m 1346.3437,611.87121 c -12.6269,-19.06664 -12.6269,-48.9924 -12.6269,-48.9924 -0.2525,-8.46003 0.1263,-8.46003 0.1263,-8.46003 3.4093,-4.29315 3.7881,-11.74302 3.7881,-11.74302 23.486,2.14657 27.2741,-2.65165 35.8604,-9.97526 15.1523,-17.42513 22.4759,9.84899 22.4759,9.84899 8.0812,42.93148 -14.2684,61.74557 -14.2684,61.74557 -18.169,13.7146 -33.293,9.51227 -35.3554,7.57615 z"/>
      <path d="m 1376.1432,485.22333 c 10.6066,30.93593 4.672,28.78935 -2.3991,38.00699 -11.6167,15.27856 -10.354,11.61675 -17.8039,8.71256 -13.0057,-6.43972 -31.5673,-16.54124 -44.1942,-43.68909 23.3598,-13.25826 20.0768,-31.18846 20.0768,-31.18846 -0.6329,-5.77671 -0.232,-7.47654 8.9828,-8.51448 11.3424,-1.27759 13.9982,2.32729 18.9227,7.88313 12.6269,15.5311 16.4149,28.78935 16.4149,28.78935 z"/>
      <path d="m 1311.1147,473.98538 c 0,0 -27.0216,3.15673 -51.3915,-10.6066 -6.566,-4.79822 -4.1669,-6.56599 -2.1466,-10.73287 5.4296,-9.59645 4.4194,-17.67768 0.2525,-26.39023 -5.6821,-7.70242 -1.0663,-11.56574 1.7678,-15.5311 5.8084,-7.32361 27.5267,-0.63135 34.3452,5.3033 21.9708,17.04632 28.6631,24.24366 28.6631,24.24366 4.5456,5.05076 3.0304,6.31346 2.7779,18.18275 -0.7576,14.89975 -5.3033,15.40482 -14.2684,15.53109 z"/>
      <path d="m 1251.2631,424.86672 c -9.8489,-13.38452 -9.8489,-10.35407 -22.7284,-10.60661 -45.2043,0.75761 -49.2449,17.67767 -54.5482,22.98097 -2.5254,6.31346 2.5253,11.8693 9.5964,11.8693 16.1625,-0.75762 17.9302,20.96066 17.9302,20.96066 2.2729,5.3033 6.0609,4.79823 13.6371,2.02031 19.4454,-8.08123 25.2538,-13.63706 40.6586,-31.81981 5.3033,-5.55584 2.2729,-7.07106 -4.5457,-15.40482 z"/>
      <path d="m 1173.9865,457.94921 c -16.9201,1.01016 -11.8693,3.03046 -17.4252,11.61676 -11.3642,29.04188 -8.5863,47.7297 -3.283,55.05331 h 11.1117 c 7.5762,-15.9099 17.4251,-26.5165 17.4251,-26.5165 15.9099,-13.8896 7.5762,-34.34519 2.5254,-38.3858 -3.788,-2.02031 -10.354,-1.76777 -10.354,-1.76777 z"/>
      <path d="m 1165,517.00504 c 15.3572,3.75 17.7525,20.62237 22.3035,30.89285 9.4293,27.85061 16.184,50.33569 -10.5178,71.78572 15.7143,-23.57143 13.75,-28.92857 3.9286,-49.10714 -9.2857,-13.39286 -18.3929,-14.28572 -18.3929,-14.28572 -24.6428,-6.07143 -18.0357,-38.92857 -11.25,-44.64286 z"/>
    </g>
  </g>
  </g>

  <!-- Locked wordmark geometry, centered with the same optical offset as GDI. -->
  <g id="nodWordmark" transform="translate(0 48)">
    <g fill-rule="evenodd" stroke-linejoin="round" filter="url(#letterShadow)">
      <use href="#rShape" transform="translate(7 9)" fill="url(#nodSteelDepth)" stroke="#060709" stroke-width="9"/>
      <use href="#eShape" transform="translate(7 9)" fill="url(#nodSteelDepth)" stroke="#060709" stroke-width="9"/>
    </g>
    <g fill="url(#nodSteelFace)" fill-rule="evenodd" stroke="#61060a" stroke-width="6" stroke-linejoin="round" filter="url(#letterGrain)">
      <use href="#rShape"/>
      <use href="#eShape"/>
    </g>
    <g fill="none" stroke="#f4f6f7" stroke-width="2.5" stroke-linejoin="round" opacity="0.82">
      <use href="#rShape"/>
      <use href="#eShape"/>
    </g>

    <g stroke-linejoin="miter" filter="url(#letterShadow)">
      <use href="#tShape" transform="translate(7 9)" fill="url(#nodRedDepth)" stroke="#050607" stroke-width="10"/>
      <use href="#sShape" transform="translate(7 9)" fill="url(#nodRedDepth)" stroke="#050607" stroke-width="10"/>
    </g>
    <g fill="url(#nodRedFace)" stroke="#bfc4ca" stroke-width="7" stroke-linejoin="miter" filter="url(#letterGrain)">
      <use href="#tShape"/>
      <use href="#sShape"/>
    </g>
    <g fill="none" stroke="#ff7c77" stroke-width="2.5" stroke-linejoin="miter" opacity="0.92">
      <use href="#tShape"/>
      <use href="#sShape"/>
    </g>
  </g>
</svg>
