<?xml version="1.0" encoding="UTF-8"?>
<svg xmlns="http://www.w3.org/2000/svg" width="1024" height="1024" viewBox="0 0 1024 1024" role="img" aria-labelledby="title desc">
  <title id="title">RE-TS Allied themed lockup</title>
  <desc id="desc">The locked RE-TS wordmark over a polished silver Allied eagle, blue winged crest, and extended triangular field.</desc>
  <defs>
    <linearGradient id="alliedRim" x1="0.08" y1="0" x2="0.92" y2="1">
      <stop offset="0" stop-color="#303944"/>
      <stop offset="0.14" stop-color="#fbffff"/>
      <stop offset="0.3" stop-color="#8e9dab"/>
      <stop offset="0.5" stop-color="#e9f1f6"/>
      <stop offset="0.72" stop-color="#66727e"/>
      <stop offset="0.88" stop-color="#cdd9e2"/>
      <stop offset="1" stop-color="#1d2630"/>
    </linearGradient>
    <radialGradient id="alliedField" cx="48%" cy="24%" r="80%">
      <stop offset="0" stop-color="#244f9c"/>
      <stop offset="0.32" stop-color="#102d67"/>
      <stop offset="0.68" stop-color="#071835"/>
      <stop offset="1" stop-color="#020817"/>
    </radialGradient>
    <linearGradient id="alliedWing" x1="0" y1="0" x2="0.82" y2="1">
      <stop offset="0" stop-color="#ffffff"/>
      <stop offset="0.2" stop-color="#aebdca"/>
      <stop offset="0.42" stop-color="#eef5f8"/>
      <stop offset="0.7" stop-color="#687784"/>
      <stop offset="1" stop-color="#c6d2da"/>
    </linearGradient>
    <linearGradient id="alliedSteelFace" x1="0.05" y1="0" x2="0.9" y2="1">
      <stop offset="0" stop-color="#ffffff"/>
      <stop offset="0.18" stop-color="#9eabb7"/>
      <stop offset="0.4" stop-color="#edf4f8"/>
      <stop offset="0.68" stop-color="#5c6875"/>
      <stop offset="1" stop-color="#c7d4dc"/>
    </linearGradient>
    <linearGradient id="alliedSteelDepth" x1="0" y1="0" x2="0" y2="1">
      <stop offset="0" stop-color="#687784"/>
      <stop offset="0.55" stop-color="#24313e"/>
      <stop offset="1" stop-color="#080e16"/>
    </linearGradient>
    <linearGradient id="alliedBlueFace" x1="0.05" y1="0" x2="0.9" y2="1">
      <stop offset="0" stop-color="#b8e7ff"/>
      <stop offset="0.16" stop-color="#398df4"/>
      <stop offset="0.44" stop-color="#6ab8ff"/>
      <stop offset="0.72" stop-color="#1750ba"/>
      <stop offset="1" stop-color="#4a91ef"/>
    </linearGradient>
    <linearGradient id="alliedBlueDepth" x1="0" y1="0" x2="0" y2="1">
      <stop offset="0" stop-color="#16479e"/>
      <stop offset="0.55" stop-color="#09255e"/>
      <stop offset="1" stop-color="#02091b"/>
    </linearGradient>
    <filter id="plateShadow" x="-12%" y="-12%" width="124%" height="138%" color-interpolation-filters="sRGB">
      <feDropShadow dx="0" dy="13" stdDeviation="11" flood-color="#000" flood-opacity="0.8"/>
    </filter>
    <filter id="blueGlow" x="-25%" y="-25%" width="150%" height="150%" color-interpolation-filters="sRGB">
      <feGaussianBlur stdDeviation="8" result="blur"/>
      <feFlood flood-color="#2b7cff" flood-opacity="0.9" result="color"/>
      <feComposite in="color" in2="blur" operator="in" result="glow"/>
      <feMerge><feMergeNode in="glow"/><feMergeNode in="SourceGraphic"/></feMerge>
    </filter>
    <filter id="letterShadow" x="-15%" y="-15%" width="140%" height="150%" color-interpolation-filters="sRGB">
      <feDropShadow dx="4" dy="8" stdDeviation="4" flood-color="#000" flood-opacity="0.82"/>
    </filter>
    <filter id="fieldTexture" x="-5%" y="-5%" width="110%" height="110%">
      <feTurbulence type="fractalNoise" baseFrequency="0.018 0.045" numOctaves="4" seed="57" result="noise"/>
      <feColorMatrix in="noise" type="saturate" values="0" result="mono"/>
      <feComponentTransfer in="mono" result="faded"><feFuncA type="table" tableValues="0 0.16"/></feComponentTransfer>
      <feComposite in="faded" in2="SourceAlpha" operator="in" result="clipped"/>
      <feBlend in="SourceGraphic" in2="clipped" mode="overlay"/>
    </filter>
    <filter id="letterGrain" x="-5%" y="-5%" width="110%" height="110%">
      <feTurbulence type="fractalNoise" baseFrequency="0.024 0.17" numOctaves="3" seed="41" result="noise"/>
      <feComponentTransfer in="noise" result="faded"><feFuncA type="table" tableValues="0 0.11"/></feComponentTransfer>
      <feComposite in="faded" in2="SourceAlpha" operator="in" result="clipped"/>
      <feBlend in="SourceGraphic" in2="clipped" mode="soft-light"/>
    </filter>

    <!-- Locked canonical wordmark silhouettes. -->
    <g id="rShape" transform="translate(154 190) scale(1.14) translate(-2477.90 -662.92)">
      <path fill-rule="evenodd" d="M2654.57 736.70C2652.09 738.73 2648.68 740.26 2644.38 741.32C2640.07 742.38 2635.27 743.07 2629.97 743.40C2624.67 743.74 2619.21 743.91 2613.58 743.92H2604.13L2604.08 712.92H2614.52C2620.48 712.89 2626.11 713.05 2631.42 713.36C2636.71 713.67 2641.36 714.39 2645.34 715.51C2649.31 716.64 2652.46 718.21 2654.79 720.22C2657.10 722.24 2658.27 725.03 2658.28 728.58C2658.28 731.97 2657.05 734.68 2654.57 736.70ZM2737.32 766.72C2746.42 764.13 2753.97 760.96 2759.92 757.24C2765.88 753.51 2770.26 749.14 2773.06 744.13C2775.87 739.12 2777.27 733.14 2777.26 726.19C2777.24 714.72 2773.07 704.96 2764.79 696.90C2756.48 688.84 2745.21 682.28 2730.96 677.21C2716.70 672.15 2700.12 668.50 2681.24 666.27C2662.35 664.04 2656.50 662.92 2635.30 662.95L2477.90 663.22L2478.22 849.49L2604.31 849.28L2604.19 780.05L2661.14 849.18L2802.98 848.94L2716.86 771.54C2724.40 770.04 2731.30 768.44 2737.32 766.72Z"/>
    </g>
    <g id="eShape" transform="translate(545 190) scale(1.14) translate(-2146.62 -662.73)">
      <path d="M2146.62 663.21L2431.30 662.73L2431.38 711.72L2283.88 711.97L2283.91 729.75L2431.41 729.49L2431.49 776.11L2283.99 776.36L2284.02 793.96L2431.23 793.71L2431.32 848.94L2146.94 849.43Z"/>
    </g>
    <path id="tShape" transform="translate(13 -35)" d="M185 488H492L465 553H369V766H268V553H154Z"/>
    <path id="sShape" transform="translate(-12 -35)" d="M537 488H864L839 553H654V600H860V766H521L553 708H736V663H537Z"/>
  </defs>

  <g id="alliedEmblem">
  <!-- Extended square-icon backing for the naturally wide Allied crest. -->
  <g filter="url(#plateShadow)">
    <path d="M290 61H734L915 294L512 958L109 294Z" fill="#050b15" stroke="#101925" stroke-width="12" stroke-linejoin="bevel"/>
    <path d="M309 81H715L884 306L512 916L140 306Z" fill="url(#alliedRim)" stroke="#cbd8e2" stroke-width="5" stroke-linejoin="bevel"/>
    <path d="M335 116H689L839 318L512 856L185 318Z" fill="url(#alliedField)" stroke="#2367d8" stroke-width="8" stroke-linejoin="bevel" filter="url(#fieldTexture)"/>
    <path d="M348 136H676L813 322L512 817L211 322Z" fill="none" stroke="#66b5ff" stroke-width="5" stroke-linejoin="bevel" opacity="0.92" filter="url(#blueGlow)"/>
  </g>

  <!-- Exact component silhouettes from the supplied pngegg.svg. -->
  <g transform="translate(26 72) scale(0.487)" filter="url(#plateShadow)">
    <g transform="translate(0 1226) scale(0.1 -0.1)" stroke-linejoin="round">
      <path fill="url(#alliedWing)" stroke="#8cc7ff" stroke-width="165" d="M26 12153 c-3-59-8-172-12-249l-6-142 73-16c41-9 1680-344 3644-746 1964-401 3580-732 3593-735 28-7 79-108 57-113-7-2-838 123-1846 277-3253 497-5473 831-5525 831-20 0 29-228 72-336 23-56 30-64 57-69 18-3 1661-190 3652-415 1991-226 3629-412 3640-415 13-3 26-21 38-55 10-29 17-53 15-55-2-2-611 30-1353 71-3894 214-5807 315-5814 309-4-4 136-259 182-331l26-41 148-7c203-9 713-22 2008-51 1133-26 4786-105 4841-105 27 0 33-5 46-39l16-39-112-6c-61-4-1515-53-3231-111-1716-57-3175-107-3242-111l-121-6 185-166c102-92 193-168 202-170 14-2 6111 388 6302 404l75 6 16-40 16-40-32-6c-17-3-1331-161-2921-351-1589-191-2897-349-2905-352-21-8 537-281 575-282 17 0 1223 190 2680 423 1458 233 2654 420 2658 416 4-4 9-20 10-35l2-28-2357-526c-1296-289-2354-528-2352-531 3-2 122-48 265-101l259-96 2108 564c1159 310 2114 566 2123 568 10 4 21-7 33-31 9-20 16-38 14-39-2-2-837-279-1855-616-1019-337-1849-616-1845-620 4-4 84-30 177-58l170-51 1701 605c935 333 1705 605 1711 605 10 0 23-22 23-39 0-4-637-301-1415-661-778-360-1409-657-1403-660 7-4 86-24 175-45l161-38 54 23c64 27 1420 696 2040 1006 338 169 448 220 452 209 4-10-28-34-107-81-62-36-557-327-1100-646-544-320-985-584-980-588 4-4 115-28 246-53l238-46 992 591c546 325 1018 606 1049 624l56 34-114 234c-63 128-114 237-114 243 0 5 86 82 191 172 130 112 188 168 185 178-4 8-73 229-156 490-82 262-151 477-153 479-2 3-1835 436-4073 964-2238 528-4076 963-4085 965-15 5-18-8-23-102z"/>
      <path fill="url(#alliedWing)" stroke="#8cc7ff" stroke-width="165" d="M15841 11294c-2246-530-4086-965-4087-967-2-2-71-219-154-483-83-263-153-485-155-491-2-7 81-85 185-174 105-89 190-167 190-174 0-7-52-116-115-243-63-127-111-233-107-236 4-2 476-283 1049-624l1043-621 232 45c128 25 240 48 249 52 12 5-273 177-960 580-537 315-1033 606-1103 647-87 52-126 80-122 89 4 10 273-119 1002-481 1147-569 1524-753 1545-753 17 0 337 77 343 83 2 2-633 298-1411 657-778 360-1415 659-1415 665 0 21 19 38 36 33 11-3 780-276 1709-606l1690-601 170 50c94 28 173 54 177 58 4 4-826 283-1845 620-1018 337-1853 614-1855 616-2 1 5 19 14 39 12 24 23 35 33 31 9-2 965-258 2124-569l2108-564 257 96c141 52 260 98 264 101 4 4-1053 243-2350 532l-2357 526 2 28c1 16 6 31 10 35 4 4 1201-183 2658-416 1458-233 2662-423 2677-424 29 0 592 269 582 279-3 3-1319 164-2925 357-1606 193-2922 354-2925 357-3 3-1 22 6 42l12 37 77-6c190-16 6288-406 6303-404 9 2 100 78 202 170l185 166-122 6c-67 4-1526 54-3242 111-1716 58-3170 107-3231 111l-112 6 16 39c13 34 19 39 46 39 17 0 866 18 1886 40 3239 70 4809 107 4999 118l115 7 48 80c64 105 161 286 156 290-6 6-1733-85-5633-300-841-46-1532-82-1534-80-7 8 35 98 49 106 8 4 1649 193 3645 419 1997 226 3642 413 3657 416 23 5 32 17 59 87 32 82 69 238 69 290 0 27-1 28-42 22-420-56-2668-395-5547-835-975-149-1779-270-1786-268-22 5 29 106 57 113 13 3 1641 336 3618 740 1977 404 3617 740 3643 746l48 11-7 187c-3 102-9 214-13 247l-6 61-4084-963z"/>
      <path fill="url(#alliedSteelFace)" stroke="#d9e8f3" stroke-width="155" d="M10225 11859c-136-66-208-93-355-129-377-94-685-182-694-198-21-37-101-113-159-151-42-27-73-58-96-93-27-43-54-67-145-125-200-130-369-281-432-388-38-65-56-147-48-220 6-63 43-178 57-176 4 0 22 19 40 42 19 24 61 59 102 82 63 36 491 244 607 295l47 20 10-28c9-28 2-38-196-260-112-128-203-233-201-235 2-2 137 49 301 112l299 116 23-29c31-37 39-80 31-152-15-136-149-330-414-603l-153-158 561-606c309-333 566-605 570-605 9 0 1163 1186 1168 1200 2 5-55 72-125 149l-128 141-320 707c-175 390-336 744-357 787-21 44-38 95-38 114 0 43 38 152 106 310 30 68 54 125 54 128 0 8-17 1-115-47z"/>
      <path fill="url(#alliedWing)" stroke="#d9e8f3" stroke-width="145" d="M8571 9133c-205-140-260-182-257-196 8-34 1661-4027 1666-4027 3 0 330 773 725 1718 396 944 776 1853 846 2020l127 302-263 180c-145 99-268 180-273 180-5 0-267-270-582-600-315-330-576-600-580-600-3 0-259 270-568 600-310 330-566 600-571 600-4 0-126-80-270-177z"/>
      <path fill="url(#alliedRim)" stroke="#5fa9ff" stroke-width="170" d="M6910 7329c-74-55-134-106-134-113 2-18 3198-7196 3204-7196 5 0 3223 7171 3228 7194 3 13-247 206-266 206-5 0-671-1496-1482-3325-811-1829-1477-3325-1480-3325-3 0-653 1473-1445 3273-791 1799-1450 3297-1465 3329l-25 56-135-99z"/>
      <path fill="url(#alliedWing)" d="M8809 5865c-233-223-425-411-426-418-3-12 219-448 229-451 6-1 778 1011 778 1021 0 11-144 253-150 253-4 0-197-182-431-405z"/>
      <path fill="url(#alliedWing)" d="M10662 6143c-44-77-69-130-64-137 5-6 178-235 386-508 207-273 380-499 384-502 4-2 59 99 123 225l117 229-429 410c-236 225-432 410-437 410-4-1-40-57-80-127z"/>
      <path fill="url(#alliedSteelFace)" d="M9167 5254c-145-291-294-592-331-670l-68-141 208-387c115-212 211-386 214-386 3 0 96 406 207 902l202 901-81 151c-44 83-82 153-84 155-1 2-122-235-267-525z"/>
      <path fill="url(#alliedSteelFace)" d="M10468 5631c-43-82-78-157-78-167 0-21 388-1762 398-1786 5-12 69 98 218 375l210 392-330 668c-181 367-332 667-335 667-3 0-41-67-83-149z"/>
      <path fill="url(#alliedWing)" d="M10170 4975c-45-93-95-198-111-232l-29-63 2-1371 3-1372 293 656 292 657-180 937c-99 516-182 943-184 948-1 6-40-66-86-160z"/>
      <path fill="url(#alliedSteelFace)" d="M9546 4199c-99-512-179-937-179-944 0-15 571-1305 585-1319 4-6 8 607 8 1362l0 1371-112 231c-61 126-114 230-117 230-4 0-87-419-185-931z"/>
    </g>
  </g>

  <!-- Simple eye cutout missing from the silhouette-only source export. -->
  <path d="M468 121L487 117L482 127L471 132L466 128Z"
        fill="#101923" stroke="#050a10" stroke-width="1.5" stroke-linejoin="bevel"/>
  </g>

  <!-- Locked wordmark geometry, recolored for the Allied themed edition. -->
  <g id="alliedWordmark" transform="translate(0 48)">
    <g fill-rule="evenodd" stroke-linejoin="round" filter="url(#letterShadow)">
      <use href="#rShape" transform="translate(7 9)" fill="url(#alliedSteelDepth)" stroke="#06101c" stroke-width="9"/>
      <use href="#eShape" transform="translate(7 9)" fill="url(#alliedSteelDepth)" stroke="#06101c" stroke-width="9"/>
    </g>
    <g fill="url(#alliedSteelFace)" fill-rule="evenodd" stroke="#1e5eaf" stroke-width="6" stroke-linejoin="round" filter="url(#letterGrain)">
      <use href="#rShape"/><use href="#eShape"/>
    </g>
    <g fill="none" stroke="#f3fbff" stroke-width="2.5" stroke-linejoin="round" opacity="0.9">
      <use href="#rShape"/><use href="#eShape"/>
    </g>
    <g stroke-linejoin="miter" filter="url(#letterShadow)">
      <use href="#tShape" transform="translate(7 9)" fill="url(#alliedBlueDepth)" stroke="#040b16" stroke-width="10"/>
      <use href="#sShape" transform="translate(7 9)" fill="url(#alliedBlueDepth)" stroke="#040b16" stroke-width="10"/>
    </g>
    <g fill="url(#alliedBlueFace)" stroke="#c7d7e3" stroke-width="7" stroke-linejoin="miter" filter="url(#letterGrain)">
      <use href="#tShape"/><use href="#sShape"/>
    </g>
    <g fill="none" stroke="#bde8ff" stroke-width="2.5" stroke-linejoin="miter" opacity="0.94">
      <use href="#tShape"/><use href="#sShape"/>
    </g>
  </g>
</svg>
