<?xml version="1.0" encoding="UTF-8"?>
<svg xmlns="http://www.w3.org/2000/svg" width="1024" height="1024" viewBox="0 0 1024 1024" role="img" aria-labelledby="title desc">
  <title id="title">reTS Tiberian Sun game lockup</title>
  <desc id="desc">The neutral reTS wordmark over a retail-icon-inspired composition of the GDI medallion behind the Nod badge.</desc>
  <defs>
    <linearGradient id="goldFace" x1="0" y1="0" x2="1" y2="1">
      <stop offset="0" stop-color="#fff0a2"/><stop offset="0.25" stop-color="#f6cf58"/>
      <stop offset="0.5" stop-color="#ffe992"/><stop offset="0.75" stop-color="#bd8418"/>
      <stop offset="1" stop-color="#f5d35d"/>
    </linearGradient>
    <linearGradient id="goldDepth" x1="0" y1="0" x2="0" y2="1">
      <stop offset="0" stop-color="#bf8214"/><stop offset="0.5" stop-color="#704000"/>
      <stop offset="1" stop-color="#321d00"/>
    </linearGradient>
    <linearGradient id="orangeFace" x1="0" y1="0" x2="0.9" y2="1">
      <stop offset="0" stop-color="#ffc12d"/><stop offset="0.18" stop-color="#f47a0a"/>
      <stop offset="0.43" stop-color="#ff9b13"/><stop offset="0.69" stop-color="#e74e00"/>
      <stop offset="1" stop-color="#ff8d0b"/>
    </linearGradient>
    <linearGradient id="orangeDepth" x1="0" y1="0" x2="0" y2="1">
      <stop offset="0" stop-color="#a14300"/><stop offset="0.5" stop-color="#5c2100"/>
      <stop offset="1" stop-color="#241008"/>
    </linearGradient>
    <filter id="shadow" x="-15%" y="-15%" width="140%" height="150%" color-interpolation-filters="sRGB">
      <feDropShadow dx="4" dy="8" stdDeviation="4" flood-color="#000" flood-opacity="0.82"/>
    </filter>
    <filter id="grain" x="-5%" y="-5%" width="110%" height="110%">
      <feTurbulence type="fractalNoise" baseFrequency="0.022 0.18" numOctaves="3" seed="41" result="noise"/>
      <feColorMatrix in="noise" type="saturate" values="0.35" result="coloredNoise"/>
      <feComponentTransfer in="coloredNoise" result="fadedNoise"><feFuncA type="table" tableValues="0 0.16"/></feComponentTransfer>
      <feComposite in="fadedNoise" in2="SourceAlpha" operator="in" result="clippedNoise"/>
      <feBlend in="SourceGraphic" in2="clippedNoise" mode="soft-light"/>
    </filter>
    <g id="rShape" transform="translate(154 190) scale(1.14) translate(-2477.90 -662.92)">
      <path fill-rule="evenodd" d="M2654.57 736.70C2652.09 738.73 2648.68 740.26 2644.38 741.32C2640.07 742.38 2635.27 743.07 2629.97 743.40C2624.67 743.74 2619.21 743.91 2613.58 743.92H2604.13L2604.08 712.92H2614.52C2620.48 712.89 2626.11 713.05 2631.42 713.36C2636.71 713.67 2641.36 714.39 2645.34 715.51C2649.31 716.64 2652.46 718.21 2654.79 720.22C2657.10 722.24 2658.27 725.03 2658.28 728.58C2658.28 731.97 2657.05 734.68 2654.57 736.70ZM2737.32 766.72C2746.42 764.13 2753.97 760.96 2759.92 757.24C2765.88 753.51 2770.26 749.14 2773.06 744.13C2775.87 739.12 2777.27 733.14 2777.26 726.19C2777.24 714.72 2773.07 704.96 2764.79 696.90C2756.48 688.84 2745.21 682.28 2730.96 677.21C2716.70 672.15 2700.12 668.50 2681.24 666.27C2662.35 664.04 2656.50 662.92 2635.30 662.95L2477.90 663.22L2478.22 849.49L2604.31 849.28L2604.19 780.05L2661.14 849.18L2802.98 848.94L2716.86 771.54C2724.40 770.04 2731.30 768.44 2737.32 766.72Z"/>
    </g>
    <g id="eShape" transform="translate(545 190) scale(1.14) translate(-2146.62 -662.73)">
      <path d="M2146.62 663.21L2431.30 662.73L2431.38 711.72L2283.88 711.97L2283.91 729.75L2431.41 729.49L2431.49 776.11L2283.99 776.36L2284.02 793.96L2431.23 793.71L2431.32 848.94L2146.94 849.43Z"/>
    </g>
    <path id="tShape" transform="translate(13 -35)" d="M185 488H492L465 553H369V766H268V553H154Z"/>
    <path id="sShape" transform="translate(-12 -35)" d="M537 488H864L839 553H654V600H860V766H521L553 708H736V663H537Z"/>
    <radialGradient id="gdiField" cx="44%" cy="35%" r="75%"><stop offset="0" stop-color="#72777a" /><stop offset="0.45" stop-color="#3b4043" /><stop offset="1" stop-color="#131718" /></radialGradient>
    <linearGradient id="gdiInsignia" x1="0" y1="0" x2="0.85" y2="1"><stop offset="0" stop-color="#fff69c" /><stop offset="0.32" stop-color="#e1c13b" /><stop offset="0.7" stop-color="#8c6814" /><stop offset="1" stop-color="#f0d64d" /></linearGradient>
    <filter id="medallionShadow" x="-15%" y="-15%" width="130%" height="140%" color-interpolation-filters="sRGB"><feDropShadow dx="0" dy="10" stdDeviation="10" flood-color="#000" flood-opacity="0.78" /></filter>
    <filter id="stoneTexture" x="-5%" y="-5%" width="110%" height="110%"><feTurbulence type="fractalNoise" baseFrequency="0.018 0.04" numOctaves="4" seed="71" result="noise" /><feColorMatrix in="noise" type="saturate" values="0" result="mono" /><feComponentTransfer in="mono" result="faded"><feFuncA type="table" tableValues="0 0.24" /></feComponentTransfer><feComposite in="faded" in2="SourceAlpha" operator="in" result="clipped" /><feBlend in="SourceGraphic" in2="clipped" mode="overlay" /></filter>
    <filter id="letterGrain" x="-5%" y="-5%" width="110%" height="110%"><feTurbulence type="fractalNoise" baseFrequency="0.024 0.17" numOctaves="3" seed="41" result="noise" /><feComponentTransfer in="noise" result="faded"><feFuncA type="table" tableValues="0 0.12" /></feComponentTransfer><feComposite in="faded" in2="SourceAlpha" operator="in" result="clipped" /><feBlend in="SourceGraphic" in2="clipped" mode="soft-light" /></filter>
    <linearGradient id="nodRim" x1="0.08" y1="0" x2="0.92" y2="1"><stop offset="0" stop-color="#16191d" /><stop offset="0.12" stop-color="#f1f3f4" /><stop offset="0.24" stop-color="#656b72" /><stop offset="0.43" stop-color="#171a1e" /><stop offset="0.63" stop-color="#858b91" /><stop offset="0.82" stop-color="#2a2d32" /><stop offset="1" stop-color="#050607" /></linearGradient>
    <linearGradient id="nodInnerRim" x1="0" y1="0" x2="1" y2="1"><stop offset="0" stop-color="#3b080b" /><stop offset="0.35" stop-color="#c2c6ca" /><stop offset="0.5" stop-color="#2a2d32" /><stop offset="0.82" stop-color="#7d090d" /><stop offset="1" stop-color="#17191c" /></linearGradient>
    <radialGradient id="nodField" cx="66%" cy="32%" r="78%"><stop offset="0" stop-color="#f52a2f" /><stop offset="0.24" stop-color="#bd0b12" /><stop offset="0.62" stop-color="#700408" /><stop offset="1" stop-color="#270104" /></radialGradient>
    <linearGradient id="nodBlackMetal" x1="0.12" y1="0" x2="0.88" y2="1"><stop offset="0" stop-color="#07090b" /><stop offset="0.22" stop-color="#555b64" /><stop offset="0.46" stop-color="#111419" /><stop offset="0.72" stop-color="#343942" /><stop offset="1" stop-color="#050608" /></linearGradient>
    <filter id="plateShadow" x="-12%" y="-12%" width="124%" height="136%" color-interpolation-filters="sRGB"><feDropShadow dx="0" dy="13" stdDeviation="11" flood-color="#000" flood-opacity="0.82" /></filter>
    <filter id="fieldTexture" x="-5%" y="-5%" width="110%" height="110%"><feTurbulence type="fractalNoise" baseFrequency="0.018 0.05" numOctaves="4" seed="93" result="noise" /><feColorMatrix in="noise" type="saturate" values="0" result="mono" /><feComponentTransfer in="mono" result="faded"><feFuncA type="table" tableValues="0 0.2" /></feComponentTransfer><feComposite in="faded" in2="SourceAlpha" operator="in" result="clipped" /><feBlend in="SourceGraphic" in2="clipped" mode="overlay" /></filter>
  </defs>

  <!-- Retail-icon hierarchy: GDI rear/upper-left, Nod front/lower-right. -->
  <g transform="translate(24 12) scale(0.64)">
    <g id="gdiEmblem"><g filter="url(#medallionShadow)"><circle cx="512" cy="512" r="458" fill="#080a0a" stroke="#050606" stroke-width="10" /><circle cx="512" cy="512" r="442" fill="url(#gdiField)" stroke="#626768" stroke-width="9" filter="url(#stoneTexture)" /><circle cx="512" cy="512" r="425" fill="none" stroke="#15191a" stroke-width="6" opacity="0.82" /></g><path d="M 321.19072,462.63859 C 316.34177,456.57921 312.52435,451.47398 312.70758,451.29363 C 312.89081,451.11328 317.76572,449.09151 323.54072,446.80082 C 329.31572,444.51012 334.36112,442.32737 334.75272,441.95025 C 335.31041,441.4132 306.98467,406.09707 301.02129,399.89438 C 300.04369,398.87754 293.77486,398.13257 277.8608,397.14204 C 265.85976,396.39506 255.58274,395.61419 255.02298,395.40676 C 254.46322,395.19933 249.54391,380.68788 244.09117,363.1591 L 234.17711,331.28859 L 227.10892,326.48208 C 223.22141,323.8385 213.96572,317.41101 206.54072,312.19877 C 173.09325,288.71911 142.41361,267.34835 130.19567,259.01847 C 127.13002,256.92839 117.63512,254.35769 83.354004,246.33631 L 40.357384,236.2756 L 20.051214,214.28209 C 8.8828332,202.18567 -0.13948681,192.16465 0.0016331891,192.01317 C 0.21116319,191.78827 175.19037,219.72078 183.54072,221.31212 C 185.65408,221.71487 186.54335,221.01707 189.29072,216.80019 C 192.76164,211.47273 193.25571,209.78859 191.34769,209.78859 C 190.69153,209.78859 177.52903,206.22527 162.09769,201.8701 C 146.66636,197.51494 123.24072,190.94005 110.04072,187.25925 C 96.840714,183.57845 85.732174,180.27927 85.355064,179.92774 C 84.977954,179.57621 86.491054,174.8617 88.717524,169.45105 C 90.943994,164.04041 92.377534,159.27622 91.903184,158.86398 C 91.428824,158.45174 85.640714,156.19463 79.040714,153.84819 C 72.440714,151.50174 66.520804,149.06592 65.885344,148.43526 C 64.174524,146.73733 35.458124,93.528939 35.772064,92.638589 C 35.919824,92.219519 64.840714,104.71654 100.04071,120.40975 C 135.24072,136.10295 171.01572,152.01336 179.54072,155.76622 C 188.06572,159.51907 202.53746,165.95235 211.70014,170.0624 L 228.35955,177.53522 L 232.91789,174.4119 C 235.42498,172.69408 237.49074,171.00776 237.50847,170.66452 C 237.53951,170.06387 228.98169,165.09411 161.04072,126.25753 C 143.99072,116.51137 129.84092,108.35649 129.59671,108.13557 C 129.3525,107.91465 132.0525,104.7914 135.59671,101.19502 L 142.04072,94.656139 L 139.54072,92.650099 C 138.16572,91.546779 131.67675,86.682992 125.12078,81.841682 L 113.20083,73.039292 L 104.9707,49.163946 C 100.44413,36.032503 94.741014,19.598579 92.297104,12.644115 L 87.853634,-0.00036573227 L 103.94717,11.577771 C 112.79863,17.945747 129.71572,30.140606 141.54072,38.677459 C 153.36572,47.214312 172.49072,61.000546 184.04072,69.313532 C 209.20308,87.423872 249.52997,116.48147 269.54072,130.92068 C 277.51572,136.67522 304.87139,156.38262 330.3311,174.7149 C 355.79081,193.04718 376.49081,208.42762 376.3311,208.89366 C 376.17139,209.3597 362.40435,221.67097 345.73768,236.25203 L 315.43465,262.76305 L 319.73768,264.82711 C 322.10435,265.96234 336.64072,272.40327 352.04072,279.14028 L 380.04072,291.3894 L 382.14278,297.27815 C 383.97355,302.40691 385.23186,303.98588 391.89278,309.51286 C 400.27437,316.46758 400.44458,316.91508 398.92498,328.00178 C 398.42181,331.67276 397.73618,332.82336 395.17498,334.29486 C 393.45114,335.28527 388.321,338.49614 383.77467,341.43013 C 374.59296,347.35558 374.70738,347.43794 378.19312,337.41286 C 380.68853,330.23602 380.95953,330.45605 365.13397,326.81007 L 350.72721,323.49097 L 324.88397,332.24378 C 310.67018,337.05783 298.75258,341.28729 298.40042,341.64259 C 298.04825,341.99789 301.00229,347.46359 304.96495,353.78859 C 308.92761,360.11359 321.53909,380.36359 332.99046,398.78859 C 344.44183,417.21359 354.31278,432.81669 354.92592,433.46215 C 355.772,434.35283 360.25904,433.09216 373.54072,428.23217 C 383.16572,424.71023 391.33977,421.81962 391.70528,421.80861 C 392.33945,421.78951 390.88032,425.44726 379.02166,453.60406 L 373.83481,465.91953 L 373.19646,460.60406 C 372.84536,457.68055 372.55419,452.92609 372.54941,450.03859 C 372.54256,445.90093 372.20242,444.78859 370.94403,444.78859 C 368.88826,444.78859 330.28315,455.85534 329.29,456.72936 C 328.8771,457.09273 328.98824,460.93107 329.53697,465.25901 C 330.0857,469.58695 330.41594,473.24671 330.27083,473.39181 C 330.12572,473.53692 326.03967,468.69797 321.19072,462.63859 z M 257.54072,441.20575 C 255.61572,440.98133 249.76572,440.30526 244.54072,439.70337 C 232.00167,438.25896 211.57961,432.97956 198.54072,427.8117 C 144.51477,406.39894 102.44688,362.02488 83.958034,306.94754 C 79.020694,292.23946 73.335744,263.49516 74.678244,260.02704 C 74.954494,259.3134 106.42146,265.80302 124.16016,270.23198 C 125.98851,270.68848 126.37525,271.75876 126.97608,278.02487 C 132.50586,335.69528 172.78792,386.85314 227.54072,405.74105 C 242.2567,410.81758 254.29269,412.90558 272.04072,413.46088 L 289.04072,413.99278 L 300.29072,425.12437 C 306.47822,431.24675 311.54072,436.54435 311.54072,436.89682 C 311.54072,439.08017 268.65878,442.50194 257.54072,441.20575 z M 358.76016,406.1403 C 355.33947,399.82422 352.56994,394.34873 352.60566,393.97255 C 352.64138,393.59637 356.55356,390.81359 361.29941,387.78859 C 371.15913,381.504 392.53251,360.85393 399.1251,351.24297 C 418.48457,323.01993 426.85542,296.65603 426.89288,263.78859 C 426.92195,238.28935 422.44392,219.18125 411.07409,196.28859 C 387.14637,148.11117 340.8493,117.43356 285.79463,113.27525 C 274.84579,112.44828 279.68426,115.51635 237.15696,82.434062 L 206.2732,58.409369 L 210.15696,57.043313 C 233.05447,48.989447 269.85845,45.673392 296.69597,49.246109 C 394.49898,62.266035 467.54072,145.6459 467.54072,244.27176 C 467.54072,275.60278 461.13799,303.4124 447.50647,331.28859 C 431.84716,363.31155 407.32826,390.89884 377.54072,410.0101 C 363.75418,418.85534 365.88413,419.29423 358.76016,406.1403 z " style="fill:url(#gdiInsignia);stroke:#f1d754;stroke-width:1.2;stroke-linejoin:round;opacity:0.72;filter:url(#letterGrain)" transform="translate(150 145) scale(1.55)" id="path2179" /></g>
  </g>
  <g transform="translate(286 282) scale(0.67)">
    <g id="nodEmblem"><g filter="url(#plateShadow)"><path d="M337 54H687L984 602L851 923H173L40 602Z" fill="#07080a" stroke="#030405" stroke-width="12" stroke-linejoin="bevel" /><path d="M351 69H673L963 604L838 903H186L61 604Z" fill="url(#nodRim)" stroke="#747a82" stroke-width="5" stroke-linejoin="bevel" /><path d="M374 103H650L920 607L816 861H208L104 607Z" fill="#190104" stroke="url(#nodInnerRim)" stroke-width="18" stroke-linejoin="bevel" /><path d="M387 126H637L891 610L798 833H226L133 610Z" fill="url(#nodField)" stroke="#6d080d" stroke-width="6" stroke-linejoin="bevel" filter="url(#fieldTexture)" /><path d="M390 139H634" fill="none" stroke="#ff7470" stroke-width="4" opacity="0.58" /><path d="M151 609L238 815H786L873 609" fill="none" stroke="#260105" stroke-width="7" opacity="0.72" /></g><g transform="translate(-300 -60) scale(17)"><g transform="matrix(0.11631764 0 0 0.11631762 -99.081201 -31.368873)" fill="url(#nodBlackMetal)" stroke="#8f959d" stroke-width="0.95" stroke-linejoin="round" opacity="0.8" filter="url(#letterGrain)"><path d="m 1284.0931,676.3947 c -6.1222,-3.21429 -23.4681,-1.17604 -31.8019,-32.49076 -17.9302,1.76777 -40.424,10.51994 -65.9304,38.55167 -6.8185,9.84899 -11.6167,8.33377 3.283,27.02159 10.3541,12.37437 17.9302,10.35406 30.3046,10.85914 39.901,1.76776 56.8211,-13.38453 56.8211,-13.38453 12.8794,-18.18274 19.4454,-18.18274 19.4454,-18.18274 0,0 -5.5558,-4.04061 -12.1218,-12.37437 z" /><path d="m 1274.6304,668.566 c 0,-1.16754 -2.6361,-2.07203 -2.593,-3.48494 0.082,-2.70206 0.803,-5.54651 2.0046,-8.5904 21.7941,-52.32187 48.0581,-56.86755 48.0581,-56.86755 17.0616,16.15719 18.7856,21.18257 38.0054,17.39077 5.4123,3.07291 13.8497,3.12065 12.4337,13.02184 3.3179,19.12272 -25.3503,43.19767 -65.7884,54.8256 -7.0711,1.6415 -17.1019,-1.26928 -32.1204,-16.29532 z" /><path d="m 1346.3437,611.87121 c -12.6269,-19.06664 -12.6269,-48.9924 -12.6269,-48.9924 -0.2525,-8.46003 0.1263,-8.46003 0.1263,-8.46003 3.4093,-4.29315 3.7881,-11.74302 3.7881,-11.74302 23.486,2.14657 27.2741,-2.65165 35.8604,-9.97526 15.1523,-17.42513 22.4759,9.84899 22.4759,9.84899 8.0812,42.93148 -14.2684,61.74557 -14.2684,61.74557 -18.169,13.7146 -33.293,9.51227 -35.3554,7.57615 z" /><path d="m 1376.1432,485.22333 c 10.6066,30.93593 4.672,28.78935 -2.3991,38.00699 -11.6167,15.27856 -10.354,11.61675 -17.8039,8.71256 -13.0057,-6.43972 -31.5673,-16.54124 -44.1942,-43.68909 23.3598,-13.25826 20.0768,-31.18846 20.0768,-31.18846 -0.6329,-5.77671 -0.232,-7.47654 8.9828,-8.51448 11.3424,-1.27759 13.9982,2.32729 18.9227,7.88313 12.6269,15.5311 16.4149,28.78935 16.4149,28.78935 z" /><path d="m 1311.1147,473.98538 c 0,0 -27.0216,3.15673 -51.3915,-10.6066 -6.566,-4.79822 -4.1669,-6.56599 -2.1466,-10.73287 5.4296,-9.59645 4.4194,-17.67768 0.2525,-26.39023 -5.6821,-7.70242 -1.0663,-11.56574 1.7678,-15.5311 5.8084,-7.32361 27.5267,-0.63135 34.3452,5.3033 21.9708,17.04632 28.6631,24.24366 28.6631,24.24366 4.5456,5.05076 3.0304,6.31346 2.7779,18.18275 -0.7576,14.89975 -5.3033,15.40482 -14.2684,15.53109 z" /><path d="m 1251.2631,424.86672 c -9.8489,-13.38452 -9.8489,-10.35407 -22.7284,-10.60661 -45.2043,0.75761 -49.2449,17.67767 -54.5482,22.98097 -2.5254,6.31346 2.5253,11.8693 9.5964,11.8693 16.1625,-0.75762 17.9302,20.96066 17.9302,20.96066 2.2729,5.3033 6.0609,4.79823 13.6371,2.02031 19.4454,-8.08123 25.2538,-13.63706 40.6586,-31.81981 5.3033,-5.55584 2.2729,-7.07106 -4.5457,-15.40482 z" /><path d="m 1173.9865,457.94921 c -16.9201,1.01016 -11.8693,3.03046 -17.4252,11.61676 -11.3642,29.04188 -8.5863,47.7297 -3.283,55.05331 h 11.1117 c 7.5762,-15.9099 17.4251,-26.5165 17.4251,-26.5165 15.9099,-13.8896 7.5762,-34.34519 2.5254,-38.3858 -3.788,-2.02031 -10.354,-1.76777 -10.354,-1.76777 z" /><path d="m 1165,517.00504 c 15.3572,3.75 17.7525,20.62237 22.3035,30.89285 9.4293,27.85061 16.184,50.33569 -10.5178,71.78572 15.7143,-23.57143 13.75,-28.92857 3.9286,-49.10714 -9.2857,-13.39286 -18.3929,-14.28572 -18.3929,-14.28572 -24.6428,-6.07143 -18.0357,-38.92857 -11.25,-44.64286 z" /></g></g></g>
  </g>

  <!-- Neutral canonical wordmark over the game-specific icon composition. -->
  <g id="tsGameWordmark" transform="translate(0 48)">
    <g fill-rule="evenodd" stroke-linejoin="round" filter="url(#shadow)">
      <use href="#rShape" transform="translate(7 9)" fill="url(#goldDepth)" stroke="#160e02" stroke-width="8"/>
      <use href="#eShape" transform="translate(7 9)" fill="url(#goldDepth)" stroke="#160e02" stroke-width="8"/>
    </g>
    <g fill="url(#goldFace)" fill-rule="evenodd" stroke="#7c4b08" stroke-width="5" stroke-linejoin="round" filter="url(#grain)">
      <use href="#rShape"/><use href="#eShape"/>
    </g>
    <g fill="none" stroke="#fff0a1" stroke-width="2.5" stroke-linejoin="round" opacity="0.88">
      <use href="#rShape"/><use href="#eShape"/>
    </g>
    <g stroke-linejoin="miter" filter="url(#shadow)">
      <use href="#tShape" transform="translate(7 9)" fill="url(#orangeDepth)" stroke="#160b04" stroke-width="8"/>
      <use href="#sShape" transform="translate(7 9)" fill="url(#orangeDepth)" stroke="#160b04" stroke-width="8"/>
    </g>
    <g fill="url(#orangeFace)" stroke="#6f2a00" stroke-width="5" stroke-linejoin="miter" filter="url(#grain)">
      <use href="#tShape"/><use href="#sShape"/>
    </g>
    <g fill="none" stroke="#ffb72c" stroke-width="2.5" stroke-linejoin="miter" opacity="0.9">
      <use href="#tShape"/><use href="#sShape"/>
    </g>
  </g>
</svg>
