<?xml version="1.0" encoding="UTF-8"?>
<svg xmlns="http://www.w3.org/2000/svg" width="1024" height="1024" viewBox="0 0 1024 1024" role="img" aria-labelledby="title desc">
  <title id="title">reTS Red Alert 2 game lockup</title>
  <desc id="desc">The neutral reTS wordmark over a retail-icon-inspired composition of the Soviet emblem behind the Allied crest.</desc>
  <defs>
    <linearGradient id="goldFace" x1="0" y1="0" x2="1" y2="1"><stop offset="0" stop-color="#fff0a2" /><stop offset="0.25" stop-color="#f6cf58" /><stop offset="0.5" stop-color="#ffe992" /><stop offset="0.75" stop-color="#bd8418" /><stop offset="1" stop-color="#f5d35d" /></linearGradient>
    <linearGradient id="goldDepth" x1="0" y1="0" x2="0" y2="1"><stop offset="0" stop-color="#bf8214" /><stop offset="0.5" stop-color="#704000" /><stop offset="1" stop-color="#321d00" /></linearGradient>
    <linearGradient id="orangeFace" x1="0" y1="0" x2="0.9" y2="1"><stop offset="0" stop-color="#ffc12d" /><stop offset="0.18" stop-color="#f47a0a" /><stop offset="0.43" stop-color="#ff9b13" /><stop offset="0.69" stop-color="#e74e00" /><stop offset="1" stop-color="#ff8d0b" /></linearGradient>
    <linearGradient id="orangeDepth" x1="0" y1="0" x2="0" y2="1"><stop offset="0" stop-color="#a14300" /><stop offset="0.5" stop-color="#5c2100" /><stop offset="1" stop-color="#241008" /></linearGradient>
    <filter id="shadow" x="-15%" y="-15%" width="140%" height="150%" color-interpolation-filters="sRGB"><feDropShadow dx="4" dy="8" stdDeviation="4" flood-color="#000" flood-opacity="0.82" /></filter>
    <filter id="grain" x="-5%" y="-5%" width="110%" height="110%"><feTurbulence type="fractalNoise" baseFrequency="0.022 0.18" numOctaves="3" seed="41" result="noise" /><feColorMatrix in="noise" type="saturate" values="0.35" result="coloredNoise" /><feComponentTransfer in="coloredNoise" result="fadedNoise"><feFuncA type="table" tableValues="0 0.16" /></feComponentTransfer><feComposite in="fadedNoise" in2="SourceAlpha" operator="in" result="clippedNoise" /><feBlend in="SourceGraphic" in2="clippedNoise" mode="soft-light" /></filter>
    <g id="rShape" transform="translate(154 190) scale(1.14) translate(-2477.90 -662.92)"><path fill-rule="evenodd" d="M2654.57 736.70C2652.09 738.73 2648.68 740.26 2644.38 741.32C2640.07 742.38 2635.27 743.07 2629.97 743.40C2624.67 743.74 2619.21 743.91 2613.58 743.92H2604.13L2604.08 712.92H2614.52C2620.48 712.89 2626.11 713.05 2631.42 713.36C2636.71 713.67 2641.36 714.39 2645.34 715.51C2649.31 716.64 2652.46 718.21 2654.79 720.22C2657.10 722.24 2658.27 725.03 2658.28 728.58C2658.28 731.97 2657.05 734.68 2654.57 736.70ZM2737.32 766.72C2746.42 764.13 2753.97 760.96 2759.92 757.24C2765.88 753.51 2770.26 749.14 2773.06 744.13C2775.87 739.12 2777.27 733.14 2777.26 726.19C2777.24 714.72 2773.07 704.96 2764.79 696.90C2756.48 688.84 2745.21 682.28 2730.96 677.21C2716.70 672.15 2700.12 668.50 2681.24 666.27C2662.35 664.04 2656.50 662.92 2635.30 662.95L2477.90 663.22L2478.22 849.49L2604.31 849.28L2604.19 780.05L2661.14 849.18L2802.98 848.94L2716.86 771.54C2724.40 770.04 2731.30 768.44 2737.32 766.72Z" /></g>
    <g id="eShape" transform="translate(545 190) scale(1.14) translate(-2146.62 -662.73)"><path d="M2146.62 663.21L2431.30 662.73L2431.38 711.72L2283.88 711.97L2283.91 729.75L2431.41 729.49L2431.49 776.11L2283.99 776.36L2284.02 793.96L2431.23 793.71L2431.32 848.94L2146.94 849.43Z" /></g>
    <path id="tShape" transform="translate(13 -35)" d="M185 488H492L465 553H369V766H268V553H154Z" />
    <path id="sShape" transform="translate(-12 -35)" d="M537 488H864L839 553H654V600H860V766H521L553 708H736V663H537Z" />
    <linearGradient id="ra2Allied_alliedRim" x1="0.08" y1="0" x2="0.92" y2="1"><stop offset="0" stop-color="#303944" /><stop offset="0.14" stop-color="#fbffff" /><stop offset="0.3" stop-color="#8e9dab" /><stop offset="0.5" stop-color="#e9f1f6" /><stop offset="0.72" stop-color="#66727e" /><stop offset="0.88" stop-color="#cdd9e2" /><stop offset="1" stop-color="#1d2630" /></linearGradient>
    <radialGradient id="ra2Allied_alliedField" cx="48%" cy="24%" r="80%"><stop offset="0" stop-color="#244f9c" /><stop offset="0.32" stop-color="#102d67" /><stop offset="0.68" stop-color="#071835" /><stop offset="1" stop-color="#020817" /></radialGradient>
    <linearGradient id="ra2Allied_alliedWing" x1="0" y1="0" x2="0.82" y2="1"><stop offset="0" stop-color="#ffffff" /><stop offset="0.2" stop-color="#aebdca" /><stop offset="0.42" stop-color="#eef5f8" /><stop offset="0.7" stop-color="#687784" /><stop offset="1" stop-color="#c6d2da" /></linearGradient>
    <linearGradient id="ra2Allied_alliedSteelFace" x1="0.05" y1="0" x2="0.9" y2="1"><stop offset="0" stop-color="#ffffff" /><stop offset="0.18" stop-color="#9eabb7" /><stop offset="0.4" stop-color="#edf4f8" /><stop offset="0.68" stop-color="#5c6875" /><stop offset="1" stop-color="#c7d4dc" /></linearGradient>
    <filter id="ra2Allied_plateShadow" x="-12%" y="-12%" width="124%" height="138%" color-interpolation-filters="sRGB"><feDropShadow dx="0" dy="13" stdDeviation="11" flood-color="#000" flood-opacity="0.8" /></filter>
    <filter id="ra2Allied_blueGlow" x="-25%" y="-25%" width="150%" height="150%" color-interpolation-filters="sRGB"><feGaussianBlur stdDeviation="8" result="blur" /><feFlood flood-color="#2b7cff" flood-opacity="0.9" result="color" /><feComposite in="color" in2="blur" operator="in" result="glow" /><feMerge><feMergeNode in="glow" /><feMergeNode in="SourceGraphic" /></feMerge></filter>
    <filter id="ra2Allied_fieldTexture" x="-5%" y="-5%" width="110%" height="110%"><feTurbulence type="fractalNoise" baseFrequency="0.018 0.045" numOctaves="4" seed="57" result="noise" /><feColorMatrix in="noise" type="saturate" values="0" result="mono" /><feComponentTransfer in="mono" result="faded"><feFuncA type="table" tableValues="0 0.16" /></feComponentTransfer><feComposite in="faded" in2="SourceAlpha" operator="in" result="clipped" /><feBlend in="SourceGraphic" in2="clipped" mode="overlay" /></filter>
    <linearGradient id="ra2Soviet_starGold" x1="0.1" y1="0" x2="0.9" y2="1"><stop offset="0" stop-color="#fff36a" /><stop offset="0.24" stop-color="#ffd20c" /><stop offset="0.5" stop-color="#fff05a" /><stop offset="0.76" stop-color="#b97400" /><stop offset="1" stop-color="#f5b900" /></linearGradient>
    <radialGradient id="ra2Soviet_plateRed" cx="62%" cy="30%" r="82%"><stop offset="0" stop-color="#e83227" /><stop offset="0.3" stop-color="#a40d0c" /><stop offset="0.68" stop-color="#550708" /><stop offset="1" stop-color="#1c0305" /></radialGradient>
    <linearGradient id="ra2Soviet_plateEdge" x1="0.06" y1="0" x2="0.94" y2="1"><stop offset="0" stop-color="#17191c" /><stop offset="0.2" stop-color="#84201d" /><stop offset="0.44" stop-color="#260608" /><stop offset="0.7" stop-color="#b53225" /><stop offset="1" stop-color="#090b0d" /></linearGradient>
    <linearGradient id="ra2Soviet_hammerSteel" x1="0" y1="0" x2="1" y2="1"><stop offset="0" stop-color="#fff2a0" /><stop offset="0.2" stop-color="#b86709" /><stop offset="0.48" stop-color="#f7ca43" /><stop offset="0.76" stop-color="#6e2604" /><stop offset="1" stop-color="#e49718" /></linearGradient>
    <filter id="ra2Soviet_plateShadow" x="-14%" y="-14%" width="128%" height="142%" color-interpolation-filters="sRGB"><feDropShadow dx="0" dy="13" stdDeviation="11" flood-color="#000" flood-opacity="0.84" /></filter>
    <filter id="ra2Soviet_emblemShadow" x="-20%" y="-20%" width="150%" height="155%" color-interpolation-filters="sRGB"><feDropShadow dx="6" dy="10" stdDeviation="6" flood-color="#160000" flood-opacity="0.88" /></filter>
    <filter id="ra2Soviet_plateTexture" x="-7%" y="-7%" width="114%" height="114%"><feTurbulence type="fractalNoise" baseFrequency="0.022 0.065" numOctaves="4" seed="117" result="noise" /><feColorMatrix in="noise" type="saturate" values="0" result="mono" /><feComponentTransfer in="mono" result="faded"><feFuncA type="table" tableValues="0 0.28" /></feComponentTransfer><feComposite in="faded" in2="SourceAlpha" operator="in" result="clipped" /><feBlend in="SourceGraphic" in2="clipped" mode="overlay" /></filter>
    <filter id="ra2Soviet_letterGrain" x="-5%" y="-5%" width="110%" height="110%"><feTurbulence type="fractalNoise" baseFrequency="0.024 0.17" numOctaves="3" seed="41" result="noise" /><feComponentTransfer in="noise" result="faded"><feFuncA type="table" tableValues="0 0.12" /></feComponentTransfer><feComposite in="faded" in2="SourceAlpha" operator="in" result="clipped" /><feBlend in="SourceGraphic" in2="clipped" mode="soft-light" /></filter>
    <clipPath id="ra2Soviet_sovietSymbolClip" clipPathUnits="userSpaceOnUse"><path transform="translate(512 500) scale(0.88 0.76) translate(-512 -500)" d="M314 131H710L810 587L512 856L214 587Z" /><rect x="0" y="500" width="1024" height="524" /></clipPath>
  </defs>

  <!-- Retail-icon hierarchy: a mildly tilted Soviet emblem behind a straight-on Allied crest. -->
  <g id="redAlert2GameEmblems">
    <g id="redAlert2SovietRear" transform="translate(350 282) scale(0.65 0.68) rotate(5 512 500)">
      <g id="ra2Soviet_sovietEmblem"><g filter="url(#ra2Soviet_plateShadow)"><path d="M512 35L625 335L949 350L696 552L783 872L512 692L241 872L328 552L75 350L399 335Z" fill="#5d2200" stroke="#2a0700" stroke-width="18" stroke-linejoin="round" /><path d="M512 52L618 348L928 363L684 555L766 847L512 679L258 847L340 555L96 363L406 348Z" fill="url(#ra2Soviet_starGold)" stroke="#ffdf22" stroke-width="5" stroke-linejoin="round" filter="url(#ra2Soviet_letterGrain)" /></g><g transform="translate(512 500) scale(0.88 0.76) translate(-512 -500)" filter="url(#ra2Soviet_plateShadow)"><path d="M300 115H724L832 594L512 886L192 594Z" fill="#08090b" stroke="#050506" stroke-width="13" stroke-linejoin="bevel" /><path d="M314 131H710L810 587L512 856L214 587Z" fill="url(#ra2Soviet_plateEdge)" stroke="#4b0a0a" stroke-width="8" stroke-linejoin="bevel" /><path d="M335 154H689L781 574L512 820L243 574Z" fill="url(#ra2Soviet_plateRed)" stroke="#b12a20" stroke-width="7" stroke-linejoin="bevel" filter="url(#ra2Soviet_plateTexture)" /><path d="M354 175H670" fill="none" stroke="#ff7050" stroke-width="5" opacity="0.55" /><path d="M265 564L512 791L759 564" fill="none" stroke="#340305" stroke-width="9" opacity="0.72" /><g fill="url(#ra2Soviet_plateEdge)" stroke="#cb392b" stroke-width="4" opacity="0.92"><path d="M307 150L320 142L333 150V166L320 174L307 166Z" /><path d="M691 150L704 142L717 150V166L704 174L691 166Z" /><path d="M770 548L784 540L798 548V564L784 572L770 564Z" /><path d="M499 798L512 790L525 798V814L512 822L499 814Z" /><path d="M226 548L240 540L254 548V564L240 572L226 564Z" /></g><g fill="none" stroke="#101114" stroke-width="3" opacity="0.85"><path d="M313 153L327 163M697 153L711 163M777 551L791 561M505 801L519 811M233 551L247 561" /></g></g><g clip-path="url(#ra2Soviet_sovietSymbolClip)"><g><g transform="translate(512 500) scale(0.95) translate(-512 -500)"><g transform="translate(538 504) scale(0.86 0.95) translate(-512 -480)"><g transform="translate(-378 -150) scale(3.36)" filter="url(#ra2Soviet_emblemShadow)" opacity="0.9"><g transform="translate(0 334) scale(0.1 -0.1)" fill-rule="nonzero" stroke-linejoin="round"><path d="M2275 2312c-33-10-82-28-110-41-56-25-195-112-195-123 0-4 33 8 73 27 136 63 209 79 342 79 144 0 213-15 340-79 107-53 198-125 276-218 126-149 155-290 98-473-34-110-112-257-167-316-30-32-37-29-85 41-31 45-175 216-269 319-29 32-55 52-65 50-32-5-19 24 29 65 40 33 50 38 63 27 4 2 5 7 3 10-7 1 8 20 35 45 26 24 47 51 47 61 0 9-20 41-45 70-49 57-53 59-176 68l-65 5-70-61c-38-33-100-85-139-116-97-78-158-138-154-151 10-27 175-211 190-211 10 0 41 22 71 48 29 26 68 60 86 75 36 29 59 28 43-1-10-18 14-51 216-300 82-101 122-155 123-164 0-13-103-39-180-45-53-4-101 0-158 11-104 21-135 34-126 55 16 39 14 49-12 70-34 27-54 27-81-1-28-29-301-362-331-405-38-54-23-108 37-133 58-23 75-10 168 133 47 73 86 133 87 133 0 1 44-10 96-24 81-21 117-25 240-25 131 0 153 2 228 27 45 15 97 36 115 46l32 19 114-145c103-130 117-144 145-144 44 0 106 52 106 89 0 23-25 69-50 91-3 3-45 51-94 108l-87 102 40 46c55 62 125 183 161 275 82 212 62 426-56 605-54 81-197 223-269 267-118 70-272 112-455 121-84 5-117 2-165-12z" fill="#4a1600" stroke="#2a0600" stroke-width="72" /><path d="M2275 2312c-33-10-82-28-110-41-56-25-195-112-195-123 0-4 33 8 73 27 136 63 209 79 342 79 144 0 213-15 340-79 107-53 198-125 276-218 126-149 155-290 98-473-34-110-112-257-167-316-30-32-37-29-85 41-31 45-175 216-269 319-29 32-55 52-65 50-32-5-19 24 29 65 40 33 50 38 63 27 4 2 5 7 3 10-7 1 8 20 35 45 26 24 47 51 47 61 0 9-20 41-45 70-49 57-53 59-176 68l-65 5-70-61c-38-33-100-85-139-116-97-78-158-138-154-151 10-27 175-211 190-211 10 0 41 22 71 48 29 26 68 60 86 75 36 29 59 28 43-1-10-18 14-51 216-300 82-101 122-155 123-164 0-13-103-39-180-45-53-4-101 0-158 11-104 21-135 34-126 55 16 39 14 49-12 70-34 27-54 27-81-1-28-29-301-362-331-405-38-54-23-108 37-133 58-23 75-10 168 133 47 73 86 133 87 133 0 1 44-10 96-24 81-21 117-25 240-25 131 0 153 2 228 27 45 15 97 36 115 46l32 19 114-145c103-130 117-144 145-144 44 0 106 52 106 89 0 23-25 69-50 91-3 3-45 51-94 108l-87 102 40 46c55 62 125 183 161 275 82 212 62 426-56 605-54 81-197 223-269 267-118 70-272 112-455 121-84 5-117 2-165-12z" fill="url(#ra2Soviet_hammerSteel)" stroke="#ffdf1c" stroke-width="50" /><path d="M2275 2312c-33-10-82-28-110-41-56-25-195-112-195-123 0-4 33 8 73 27 136 63 209 79 342 79 144 0 213-15 340-79 107-53 198-125 276-218 126-149 155-290 98-473-34-110-112-257-167-316-30-32-37-29-85 41-31 45-175 216-269 319-29 32-55 52-65 50-32-5-19 24 29 65 40 33 50 38 63 27 4 2 5 7 3 10-7 1 8 20 35 45 26 24 47 51 47 61 0 9-20 41-45 70-49 57-53 59-176 68l-65 5-70-61c-38-33-100-85-139-116-97-78-158-138-154-151 10-27 175-211 190-211 10 0 41 22 71 48 29 26 68 60 86 75 36 29 59 28 43-1-10-18 14-51 216-300 82-101 122-155 123-164 0-13-103-39-180-45-53-4-101 0-158 11-104 21-135 34-126 55 16 39 14 49-12 70-34 27-54 27-81-1-28-29-301-362-331-405-38-54-23-108 37-133 58-23 75-10 168 133 47 73 86 133 87 133 0 1 44-10 96-24 81-21 117-25 240-25 131 0 153 2 228 27 45 15 97 36 115 46l32 19 114-145c103-130 117-144 145-144 44 0 106 52 106 89 0 23-25 69-50 91-3 3-45 51-94 108l-87 102 40 46c55 62 125 183 161 275 82 212 62 426-56 605-54 81-197 223-269 267-118 70-272 112-455 121-84 5-117 2-165-12z" fill="url(#ra2Soviet_hammerSteel)" stroke="#fff078" stroke-width="14" opacity="0.78" /></g></g></g></g></g></g></g>
    </g>
    <g id="redAlert2AlliedFront" transform="translate(-20 2) scale(0.82)">
      <g id="ra2Allied_alliedEmblem"><g filter="url(#ra2Allied_plateShadow)"><path d="M290 61H734L915 294L512 958L109 294Z" fill="#050b15" stroke="#101925" stroke-width="12" stroke-linejoin="bevel" /><path d="M309 81H715L884 306L512 916L140 306Z" fill="url(#ra2Allied_alliedRim)" stroke="#cbd8e2" stroke-width="5" stroke-linejoin="bevel" /><path d="M335 116H689L839 318L512 856L185 318Z" fill="url(#ra2Allied_alliedField)" stroke="#2367d8" stroke-width="8" stroke-linejoin="bevel" filter="url(#ra2Allied_fieldTexture)" /><path d="M348 136H676L813 322L512 817L211 322Z" fill="none" stroke="#66b5ff" stroke-width="5" stroke-linejoin="bevel" opacity="0.92" filter="url(#ra2Allied_blueGlow)" /></g><g transform="translate(26 72) scale(0.487)" filter="url(#ra2Allied_plateShadow)"><g transform="translate(0 1226) scale(0.1 -0.1)" stroke-linejoin="round"><path fill="url(#ra2Allied_alliedWing)" stroke="#8cc7ff" stroke-width="165" d="M26 12153 c-3-59-8-172-12-249l-6-142 73-16c41-9 1680-344 3644-746 1964-401 3580-732 3593-735 28-7 79-108 57-113-7-2-838 123-1846 277-3253 497-5473 831-5525 831-20 0 29-228 72-336 23-56 30-64 57-69 18-3 1661-190 3652-415 1991-226 3629-412 3640-415 13-3 26-21 38-55 10-29 17-53 15-55-2-2-611 30-1353 71-3894 214-5807 315-5814 309-4-4 136-259 182-331l26-41 148-7c203-9 713-22 2008-51 1133-26 4786-105 4841-105 27 0 33-5 46-39l16-39-112-6c-61-4-1515-53-3231-111-1716-57-3175-107-3242-111l-121-6 185-166c102-92 193-168 202-170 14-2 6111 388 6302 404l75 6 16-40 16-40-32-6c-17-3-1331-161-2921-351-1589-191-2897-349-2905-352-21-8 537-281 575-282 17 0 1223 190 2680 423 1458 233 2654 420 2658 416 4-4 9-20 10-35l2-28-2357-526c-1296-289-2354-528-2352-531 3-2 122-48 265-101l259-96 2108 564c1159 310 2114 566 2123 568 10 4 21-7 33-31 9-20 16-38 14-39-2-2-837-279-1855-616-1019-337-1849-616-1845-620 4-4 84-30 177-58l170-51 1701 605c935 333 1705 605 1711 605 10 0 23-22 23-39 0-4-637-301-1415-661-778-360-1409-657-1403-660 7-4 86-24 175-45l161-38 54 23c64 27 1420 696 2040 1006 338 169 448 220 452 209 4-10-28-34-107-81-62-36-557-327-1100-646-544-320-985-584-980-588 4-4 115-28 246-53l238-46 992 591c546 325 1018 606 1049 624l56 34-114 234c-63 128-114 237-114 243 0 5 86 82 191 172 130 112 188 168 185 178-4 8-73 229-156 490-82 262-151 477-153 479-2 3-1835 436-4073 964-2238 528-4076 963-4085 965-15 5-18-8-23-102z" /><path fill="url(#ra2Allied_alliedWing)" stroke="#8cc7ff" stroke-width="165" d="M15841 11294c-2246-530-4086-965-4087-967-2-2-71-219-154-483-83-263-153-485-155-491-2-7 81-85 185-174 105-89 190-167 190-174 0-7-52-116-115-243-63-127-111-233-107-236 4-2 476-283 1049-624l1043-621 232 45c128 25 240 48 249 52 12 5-273 177-960 580-537 315-1033 606-1103 647-87 52-126 80-122 89 4 10 273-119 1002-481 1147-569 1524-753 1545-753 17 0 337 77 343 83 2 2-633 298-1411 657-778 360-1415 659-1415 665 0 21 19 38 36 33 11-3 780-276 1709-606l1690-601 170 50c94 28 173 54 177 58 4 4-826 283-1845 620-1018 337-1853 614-1855 616-2 1 5 19 14 39 12 24 23 35 33 31 9-2 965-258 2124-569l2108-564 257 96c141 52 260 98 264 101 4 4-1053 243-2350 532l-2357 526 2 28c1 16 6 31 10 35 4 4 1201-183 2658-416 1458-233 2662-423 2677-424 29 0 592 269 582 279-3 3-1319 164-2925 357-1606 193-2922 354-2925 357-3 3-1 22 6 42l12 37 77-6c190-16 6288-406 6303-404 9 2 100 78 202 170l185 166-122 6c-67 4-1526 54-3242 111-1716 58-3170 107-3231 111l-112 6 16 39c13 34 19 39 46 39 17 0 866 18 1886 40 3239 70 4809 107 4999 118l115 7 48 80c64 105 161 286 156 290-6 6-1733-85-5633-300-841-46-1532-82-1534-80-7 8 35 98 49 106 8 4 1649 193 3645 419 1997 226 3642 413 3657 416 23 5 32 17 59 87 32 82 69 238 69 290 0 27-1 28-42 22-420-56-2668-395-5547-835-975-149-1779-270-1786-268-22 5 29 106 57 113 13 3 1641 336 3618 740 1977 404 3617 740 3643 746l48 11-7 187c-3 102-9 214-13 247l-6 61-4084-963z" /><path fill="url(#ra2Allied_alliedSteelFace)" stroke="#d9e8f3" stroke-width="155" d="M10225 11859c-136-66-208-93-355-129-377-94-685-182-694-198-21-37-101-113-159-151-42-27-73-58-96-93-27-43-54-67-145-125-200-130-369-281-432-388-38-65-56-147-48-220 6-63 43-178 57-176 4 0 22 19 40 42 19 24 61 59 102 82 63 36 491 244 607 295l47 20 10-28c9-28 2-38-196-260-112-128-203-233-201-235 2-2 137 49 301 112l299 116 23-29c31-37 39-80 31-152-15-136-149-330-414-603l-153-158 561-606c309-333 566-605 570-605 9 0 1163 1186 1168 1200 2 5-55 72-125 149l-128 141-320 707c-175 390-336 744-357 787-21 44-38 95-38 114 0 43 38 152 106 310 30 68 54 125 54 128 0 8-17 1-115-47z" /><path fill="url(#ra2Allied_alliedWing)" stroke="#d9e8f3" stroke-width="145" d="M8571 9133c-205-140-260-182-257-196 8-34 1661-4027 1666-4027 3 0 330 773 725 1718 396 944 776 1853 846 2020l127 302-263 180c-145 99-268 180-273 180-5 0-267-270-582-600-315-330-576-600-580-600-3 0-259 270-568 600-310 330-566 600-571 600-4 0-126-80-270-177z" /><path fill="url(#ra2Allied_alliedRim)" stroke="#5fa9ff" stroke-width="170" d="M6910 7329c-74-55-134-106-134-113 2-18 3198-7196 3204-7196 5 0 3223 7171 3228 7194 3 13-247 206-266 206-5 0-671-1496-1482-3325-811-1829-1477-3325-1480-3325-3 0-653 1473-1445 3273-791 1799-1450 3297-1465 3329l-25 56-135-99z" /><path fill="url(#ra2Allied_alliedWing)" d="M8809 5865c-233-223-425-411-426-418-3-12 219-448 229-451 6-1 778 1011 778 1021 0 11-144 253-150 253-4 0-197-182-431-405z" /><path fill="url(#ra2Allied_alliedWing)" d="M10662 6143c-44-77-69-130-64-137 5-6 178-235 386-508 207-273 380-499 384-502 4-2 59 99 123 225l117 229-429 410c-236 225-432 410-437 410-4-1-40-57-80-127z" /><path fill="url(#ra2Allied_alliedSteelFace)" d="M9167 5254c-145-291-294-592-331-670l-68-141 208-387c115-212 211-386 214-386 3 0 96 406 207 902l202 901-81 151c-44 83-82 153-84 155-1 2-122-235-267-525z" /><path fill="url(#ra2Allied_alliedSteelFace)" d="M10468 5631c-43-82-78-157-78-167 0-21 388-1762 398-1786 5-12 69 98 218 375l210 392-330 668c-181 367-332 667-335 667-3 0-41-67-83-149z" /><path fill="url(#ra2Allied_alliedWing)" d="M10170 4975c-45-93-95-198-111-232l-29-63 2-1371 3-1372 293 656 292 657-180 937c-99 516-182 943-184 948-1 6-40-66-86-160z" /><path fill="url(#ra2Allied_alliedSteelFace)" d="M9546 4199c-99-512-179-937-179-944 0-15 571-1305 585-1319 4-6 8 607 8 1362l0 1371-112 231c-61 126-114 230-117 230-4 0-87-419-185-931z" /></g></g><path d="M468 121L487 117L482 127L471 132L466 128Z" fill="#101923" stroke="#050a10" stroke-width="1.5" stroke-linejoin="bevel" /></g>
    </g>
  </g>

  <!-- Neutral canonical wordmark over the game-specific icon composition. -->
  <g id="redAlert2GameWordmark" transform="translate(0 48)">
    <g fill-rule="evenodd" stroke-linejoin="round" filter="url(#shadow)">
      <use href="#rShape" transform="translate(7 9)" fill="url(#goldDepth)" stroke="#160e02" stroke-width="8"/>
      <use href="#eShape" transform="translate(7 9)" fill="url(#goldDepth)" stroke="#160e02" stroke-width="8"/>
    </g>
    <g fill="url(#goldFace)" fill-rule="evenodd" stroke="#7c4b08" stroke-width="5" stroke-linejoin="round" filter="url(#grain)">
      <use href="#rShape"/><use href="#eShape"/>
    </g>
    <g fill="none" stroke="#fff0a1" stroke-width="2.5" stroke-linejoin="round" opacity="0.88">
      <use href="#rShape"/><use href="#eShape"/>
    </g>
    <g stroke-linejoin="miter" filter="url(#shadow)">
      <use href="#tShape" transform="translate(7 9)" fill="url(#orangeDepth)" stroke="#160b04" stroke-width="8"/>
      <use href="#sShape" transform="translate(7 9)" fill="url(#orangeDepth)" stroke="#160b04" stroke-width="8"/>
    </g>
    <g fill="url(#orangeFace)" stroke="#6f2a00" stroke-width="5" stroke-linejoin="miter" filter="url(#grain)">
      <use href="#tShape"/><use href="#sShape"/>
    </g>
    <g fill="none" stroke="#ffb72c" stroke-width="2.5" stroke-linejoin="miter" opacity="0.9">
      <use href="#tShape"/><use href="#sShape"/>
    </g>
  </g>
</svg>
